<?xml version="1.0" encoding="UTF-8" standalone="no"?>
<svg xmlns="http://www.w3.org/2000/svg" width="378.93332" height="577.125" version="1.0" viewBox="0 0 355.24999 541.0547">
  <g transform="translate(27.625 70.527344)">
    <path fill="#d4d4d4" d="M-27.625-70.527344h355.25v541.05469h-355.25z"/>
    <ellipse cx="150" cy="200.00011" fill="#e3e3e3" rx="158.59373" ry="249.16983"/>
    <path fill="#fff" d="M169.97012 311.45727c0 17.05746-12.94125 30.92555-28.90212 30.92555-15.9355 0-28.90213-13.86809-28.90213-30.92555s12.96663-30.92555 28.90213-30.92555c15.96087 0 28.90212 13.86809 28.90212 30.92555zM143.02187 57.617186h3.40025c19.082 0 35.0175 5.695313 47.73038 17.000508 12.83975 11.305196 19.285 26.312346 19.285 45.021446 0 12.81445-2.35988 23.66402-7.05425 32.57719-4.59288 8.79926-12.81438 19.1932-24.58838 31.15336-11.6725 11.93168-19.23424 21.78457-22.76137 29.70105-3.52713 7.91649-5.30338 16.57336-5.30338 25.99911 0 1.99336.812 7.29 2.46138 15.83297H122.392l-3.32413-9.59661c-1.87775-5.55293-2.842-10.36546-2.842-14.52304 0-7.91649 1.015-15.49125 2.99425-22.78125 2.1315-7.29 5.20188-14.0959 9.21113-20.36075 4.00925-6.40723 11.92625-16.60183 23.70025-30.52687 11.90087-13.95352 17.83862-25.4011 17.83862-34.45664 0-17.57004-10.78437-26.426255-32.35312-26.426255-10.47988 0-21.39113 5.638355-32.80988 16.829645L86.562499 76.668007c14.489121-12.10254 33.317371-18.48129 56.459371-19.050821Z"/>
  </g>
</svg>